<svg xmlns="http://www.w3.org/2000/svg" viewBox="0 0 110 104.62"><defs><style>.cls-1{fill:#c69;}.cls-2{opacity:0.5;}</style></defs><title>Asset 9</title><g id="Layer_2" data-name="Layer 2"><g id="Layer_1-2" data-name="Layer 1"><polygon class="cls-1" points="55 0 72 34.44 110 39.96 82.5 66.77 88.99 104.62 55 86.75 21.01 104.62 27.5 66.77 0 39.96 38 34.44 55 0"/><g class="cls-2"><path d="M55,4.52l15.2,30.8.47,1,1,.15,34,4.94-24.6,24-.75.74.18,1L86.34,101,55.93,85,55,84.49l-.93.49L23.66,101,29.47,67.1l.18-1-.75-.74-24.6-24,34-4.94,1-.15.47-1L55,4.52M55,0,38,34.44,0,40,27.5,66.77,21,104.62,55,86.75l34,17.87L82.5,66.77,110,40,72,34.44,55,0Z"/></g><g class="cls-2"><circle cx="33.5" cy="49.81" r="4.5"/><circle cx="76.5" cy="49.81" r="4.5"/><rect x="39" y="55.81" width="32" height="4"/></g></g></g></svg>